<?xml version="1.0" encoding="utf-8"?>
<!-- Generator: Adobe Illustrator 12.0.0, SVG Export Plug-In . SVG Version: 6.00 Build 51448)  -->
<!DOCTYPE svg PUBLIC "-//W3C//DTD SVG 1.1//EN" "http://www.w3.org/Graphics/SVG/1.1/DTD/svg11.dtd" [
	<!ENTITY ns_svg "http://www.w3.org/2000/svg">
	<!ENTITY ns_xlink "http://www.w3.org/1999/xlink">
]>
<svg  version="1.1" id="Layer_1" xmlns="&ns_svg;" xmlns:xlink="&ns_xlink;" width="58.673" height="50.529"
	 viewBox="0 0 278.673 270.529" overflow="visible" enable-background="new 0 0 278.673 270.529" xml:space="preserve">
<g id="XMLID_12_">
	<g>
		<path fill="#FAB017" d="M241.422,43.25c20.04,21.48,37.13,53.12,37,93c-0.03,9.919-1.96,20.12-4,29c-6.31,27.4-20.74,49.091-37,65
			c-22.45,21.98-54.19,39.17-95,40c-38.93,0.79-73.65-14.38-98-37c-23.75-22.06-41.85-51.739-44-92c-1.31-24.52,5.08-46.21,12-61
			c1.84-3.94,3.14-7.53,5-11c0.91-1.69,2.88-3.22,4-5c21.09-33.5,54.82-57.9,102-63c0.61-0.07,1.18-0.14,1-1c10,0,20,0,30,0
			c8.09,2.05,18.75,3.52,27,6c6.45,1.94,12.62,5.09,17,7c6.5,2.84,10.84,4.72,16,8C224.202,27.47,234.152,35.45,241.422,43.25z
			 M275.422,125.25c-0.1-5.9,0.65-12.65-4-14c-8.49,1.18-15.54,3.79-25,4c-2.13,6.45,2.19,13.34,9,14c4.39,1.05,3.28-3.38,7-3
			C266.492,129.29,271.712,127.63,275.422,125.25z M272.422,149.25c5.46,0.13,2.04-8.62,3-13c-10.23-0.47-19.18-0.86-29,1
			c0.4,4.74-1.79,6.88-1,12c1.67,0,3.33,0,5,0c0.17-4.97-1.92-7.729,2-10c5.39-1.39,4.19,3.81,9,3c1.59-3.78,8.03-3.44,11-1
			C272.422,143.92,272.422,146.58,272.422,149.25z M272.422,162.25c0.39-2.729-3.71-2.68-5-3c-7.27-1.83-14.19-2.229-20-4
			c-0.67,0-1.33,0-2,0c0.13,5.391-4.76,10.95-1,14c5.17,0.5,2.72-6.609,5-9c4.07-0.649,7.81,1.221,12,2
			C265.242,162.959,271.771,166.14,272.422,162.25z M247.422,108.25c8.55,1.82,23.18-5.36,23-12c-0.17-6.37-4.15-7.71-12-7
			c-4.64,0.42-8.25,2.22-11,4c-2.55,1.65-7.77,4.27-7,9C241.002,105.81,244.362,107.6,247.422,108.25z M256.422,79.25
			c1.49-1.43,4.31-1.66,4-4c-6.71-0.36-11.14,6.84-16,5c1.57-7.12,10.38-11.12,7-20c-4,0.56-7.7,3.59-10,5c-2.06,1.26-4.3,2.33-5,3
			c-0.84,0.8-2.15,1.19-3,2c-2.28,2.19-6.83,3.52-7,7c9.02-1.31,12.65-8.02,21-10c-1.5,4.15-4.43,7.27-7,11
			c-2.26,3.29-6.74,6.85-5,11c4.02,0.38,7.49-4.19,9-5C247.572,82.56,255.042,80.57,256.422,79.25z M254.422,188.25
			c3.11-2.76-1.24-7.109-4-4C249.731,187.6,252.102,187.9,254.422,188.25z M236.422,208.25c6.36-0.859,16.6,6.471,17-3
			c-7.96-4.71-13.35-11.979-23-15c-0.08,1.74,0.22,3.11,1,4c3.43,0.69,6.41,3.11,9,5c2.49,1.82,5.96,3.75,7,7
			c-3.99-0.489-8.09-0.17-12-1c-5.4-1.149-10.54-6.649-13-1c3.14,0.86,4.22,3.78,8,4c0.75,2.061,3.12,4.181,4,5
			c0.76,0.71,2.17,0.311,3,1c2.2,1.82,3.99,7.03,7,5C244.822,213.16,235.092,211.95,236.422,208.25z M235.422,59.25
			c0.79-3.45-0.93-4.4-3-5c-1.21,1.55-3.2,3.9-1,6C233.312,60.47,233.632,59.12,235.422,59.25z M231.422,234.25
			c0.86-0.81,0.59-2.739,2-3c-2.72-9.609-9.15-15.52-12-25c-2.93,0.9-3.07,0.9-6,0c-2.74-4.83-7.45-9.97-11-16
			c-0.29-0.489,0.3-1.52,0-2c-0.53-0.859-2.45-1.18-3-2c-0.8-1.199-0.23-2.739-1-4c-1.42-2.319-2.96-3.43-4-6
			c-1.12-2.77-1.75-4.51-3-7c-0.91-1.819-1.3-4.859-1-9c0.08-1.13,1.78-2.31,2-3c0.68-2.109,0.12-4.729,1-7
			c0.75-1.939,2.79-3.21,4-5c2.03-3.02,3.45-5.26,5-9c0.86-2.08,2.76-5.84,5-8c-0.13-10.02,7.14-15.35,7-24
			c-0.05-2.92-3.81-5.93-2-10c-4.9-5.1-7.13-12.87-10-20c-3.95-1.54-6.41-6.12-10-9c-2.35-1.89-3.69-2.23-6-5
			c-0.25-0.3-1.88-0.73-2-1c-1.02-2.27-0.92-1.64-4-4c-0.33-0.25-0.71-1.87-1-2c-0.49-0.22-1.58,0.31-2,0c-2.03-1.53-3.86-4.45-5-5
			c-1.33-0.64-3.99-0.33-6-1c-1.14-0.38-2.74-1.75-4-2c0.07,0.01-1.21,1.3-2,1c-0.35-0.13-0.09-0.85-1-1c-3.31-0.54-5.19-1.45-8,0
			c0.31-2.31-2.89-1.11-3-3c-3.04,0.63-8.61-1.28-10,1c3.11,0.01,6.91,1.98,5,4c-3.08,0.7-1.92,0.7-5,0c-0.41,5.08,3.92,5.42,8,6
			c0.62,1.45,1.21-0.1,0,0c-0.56-2.44-3.87-2.13-3-6c3.83-1.25,4.23-2.91,10-1c0.52,0.17,1.62,1.89,2,2c0.76,0.23,2.34-0.42,3,0
			c0.04,0.03,0.63,3.72,4,2c0.15,4.18,4.48,4.18,7,6c1.39,1.61,4.94,1.06,6,3c-0.37-1.7,0.78-1.89,2-2c0.44,1.23,1.28,2.05,3,2
			c-0.84,3.57,5.09,5.49,3,7c-3.14-2.52-7.23-4.11-13-4c-2.68-2.99-6.81-4.53-13-4c-2.49,0.41-6.57-5.71-7-1
			c2.45,2.22,9.18,0.15,8,6c5.06-0.73,7.34,1.33,10,3c0,1,0,2,0,3c3.05,0.05,2.4-3.6,6-3c0.35,1.31,1.76,1.57,2,3
			c0.54,3.54-3.54,2.46-3,6c3.21-0.83,2.07-0.85,4,1c0.64-3.02,1.56-5.77,5-6c0.82,1.05,2.54,2.04,3,3c0.94,1.98-0.73,4.37,1,6
			c-0.46,3.85,2.69,9.24,5,7c-1.76-0.24-2.28-1.72-2-4c3.55,1.55,0.6-3.4,3-3c4.01,3.32,4.43,10.23,5,17c1.79,0.13,2.11-1.22,4-1
			c0,1,0,2,0,3c-3.81,0.05-0.72,9.44-6,10c2.17-0.17,0.45,3.55,1,5c-1.9,1.87-2.51,0.11-5,0c0.85,3.19-0.87,3.8-2,5
			c1.71,1.29,3.93,2.07,4,5c-2.52,1.81-2.84,5.82-6,7c-0.77-2.56,3.91-4.6,1-6c-1.06,5.27-8.34,4.33-11,8c0.61,1.39,3.85,0.15,4,2
			c-0.4,2.4,4.55-0.56,3,3c-4.15-0.27-3.9,1.31-7,0c0.34-2.01-0.2-3.13-2-3c-2,1.88-1.58,3.63-5,2c0.49-3.22,3.65-5.91,0-8
			c0.28,2.28-0.24,3.76-2,4c-0.08-1.58,0.48-3.81-1-4c0.28,2.28-0.24,3.76-2,4c-0.07-5.25-1.91-10.04,2-13c0.61,0.58,4.74,2.34,5,0
			c-3.78-2.88-5.55-7.78-9-11c-6.08,3.64-9.24-7.53-15-4c2.28-0.28,3.76,0.24,4,2c-2.49-0.15-3.1,1.57-5,2c-1.49-2.51-4.49-3.51-7-5
			c-0.21,1.71,1.71,2.59,0,3c-2.68-1.65-4.43-4.24-7-6c-3.78,0.22-9.02-1.02-9,3c7.59,0.75,14.99,1.68,18,7
			c-2.55,2.56-4.85-0.22-6-2c0.96-4.15-3-0.2,0,0c-0.88,4.25,0.68,6.49-2,10c4.72,0.05,5.11-4.22,8-6c2.63,2.4,3.91-1.43,7-2
			c2.18-0.4,4.08,0.29,7,0c0.62,2.71,4.18,2.49,4,6c-2.86-2.47-6-4.67-12-4c-4.97,2.76-4.79,11.15-6,15c0.3-2.64-1.38-3.28-4-3
			c-1.15,1.18-1.13,3.53-1,6c-3.57,1.43-4.17,5.83-8,7c0.17,5.88-8.91,8.98-2,13c-0.09-1.42-0.17-2.83,1-3
			c-0.8,3.471,1.49,3.841,1,7c3.55,1.551,0.6-3.399,3-3c1.06,2.271,6.29,0.38,9,1c7.82-4.92,12.81-11.89,24-11
			c-0.1,2.57-3.9,1.43-4,4c6.84-0.97,14.14-3.17,20,0c-1.16-0.16-1.78,0.22-2,1c-1.45,0.61,0.1,1.21,0,0c1.77,0.23,5.01-1.01,4,2
			c-0.27,2.061-4.43,0.24-4,3c4.08,1.11-1.14,3.051-1,6c0.81,0.86,2.74,0.591,3,2c0.17,2.891,0.92,4.62,0,7
			c-0.18,0.48-1.83,0.62-2,1c-1.12,2.49-2.53,3.63-5,6c-1.39,1.33-5.44,2.36-8,4c-0.86,0.551-1.18,2.45-2,3
			c-1.65,1.101-10.04,2.62-6,7c0.19-1.14,1-0.56,1,0c1.4,0.48,1.48-0.609,2-1c0.37-0.279,2.12-2.609,3-3c0.41-0.189,1.69,0.311,2,0
			c1.04-1.05,0.84-3.06,2-4c0.85-0.689,2.23-0.29,3-1c0.4-0.37,0.58-1.71,1-2c1.28-0.88,3.83-1.02,5-2c2.1-1.76,2.88-5.31,6-6
			c0.02,3.07-6.22,5.03-3,8c1.13-2.93,2.87,1.65,4,2c-1.48,0.851-2.15,2.521-2,5c-4.15-0.96-0.2,2.99,0,0c1.7,0.051,3.49-4.93,6-5
			c-0.61,0.021,4.48,3.2,5,4c1.05,1.62,1.47,4.341,0,8c1.7-0.37,1.89,0.78,2,2c-1.24,3.431-5.91,3.42-6,8c-2.83,0.17-6.86-0.859-7,2
			c1.79-1.21,5.82-0.18,7-2c3.46-0.149,7.55-2.699,10,1c-1.77,0.891-1.27,4.061-5,3c0.12,2.5,1.91,3.13-1,4
			c-5.95-2.659-14.25,0.2-17,4c4.87-0.46,3.76-0.67,7,1c2.85-1.81,4.09-5.25,10-4c-0.35,1.311-1.76,1.57-2,3
			c6.67,0.69,11.47-7.8,16-3c-1.48,2.521-3.87,4.13-7,5c-1.01,2.75-4.65,5.351-8,7c-2.1,1.03-4.57,1-7,2c-4.16,1.71-8.09,4.351-12,6
			c-2.19,0.92-4.79,1.08-7,2c-2.61,1.091-5.51,3.2-9,4c-2.99,0.681-6.19,0.761-9,2c-0.61-1.39-3.85-0.149-4-2
			c2.28-3.72,9.53-2.47,12-6c3.05,0.051,5.09-0.909,6-3c-3.38-0.38-4.27,1.73-6,3c-6.01-0.56-7.2,2.771-12,1
			c0.27,4.091-3.59,1.891-6,3c-0.46,0.21-0.63,1.83-1,2c-1.23,0.551-2.81-0.1-5,1c-2.14,1.07-2.8,2.69-5,3
			c-4.55,0.641-8.68-1.87-14-1c0-1,0-2,0-3c-1.58-0.08-3.81,0.48-4-1c-3.24-1.239-0.76,3.23-4,2c-2.79-2.659-7.9-2.069-12-1
			c-1.55-4.22,5.55,0.221,4-4c-6.41,0.261-10.44,2.891-15,5c-2.29-2.85,2.15-8.71-2-11c-4.25,0.75-5.33,4.67-11,4
			c0.55-3.79,2.42-6.25,2-11c-1.71,0.04-2.59-0.739-3-2c-4.65-0.939-8.72,3.891-12,1c0.84-3.489,3.34-5.319,3-10
			c-4.88,1.45-5.25,7.42-7,12c-1.31,0.351-1.57,1.761-3,2c-2.2,2.801-10.01-0.01-10,5c2.56,3.11,6.86-3.89,10,0
			c-1.11,1.891-1.28,4.721-2,7c1.66,2,2.69,4.65,6,5c3.06,0,7.25-4.01,10-1c-0.86,3.851-2.18,8.9,3,9c3.37,5.49,7.9-1.92,12-2
			c-2.59,2.88,0.45,6.2,0,10c5.19-0.81,2.49-9.51,4-14c4.23-1.109,6.35-4.319,11-5c-0.43,4.431,5.83,2.17,6,6
			c0.58,7.25-3.12,10.221-7,13c-3.43,2.5-6.46-2.01-9,0c4.51,9.62,14.94-0.08,18-4c1.07-3.93,0.22-9.779,2-13
			c1.47,3.86,7.76,2.91,9,7c-0.18,7.49-2.22,13.11-7,16c-3.55,1.681-8.06-3.39-8,1c2.09,1.58,5.26,2.07,9,2
			c4.3-2.689,8.37-9.479,9-16c0.2-2.09-0.67-4.5,0-6c3.71-0.71,4.29,1.71,8,1c3.13,7.721,3.34,23.79-10,21c0.59,6.13,8.9,1.48,12,1
			c0.59-3.14,2.62-7.51,3-12c0.33-3.81-0.54-7.729,0-10c1.58,0.08,3.81-0.479,4,1c-5.25,9.11-2.19,30.2,12,23
			c0.54-8.22-0.79-19.859,0-25c3.91-0.14,1.46,4.25,2,6c0.16,0.53,1.89,1.62,2,2c1.42,4.7,1.72,11.44,4,17
			c6.75-1.25,1.61-14.39,7-17c4.69,4.311,6.29,11.71,13,14c2.26-8.739-4.34-16.88-4-27c3.36-2.67,7.4-4.069,13-6
			c4.79-1.649,8.82-3.93,14-5c2.88,7.12,7.16,12.841,9,21c0.49,3.16-4.96,0.37-4,4c3.1,3.28,6.67-1.72,9-3c2.93-1.6,7.93-2.159,8-6
			c-4.18-0.84-4.72,1.94-8,2c-4.63-5.699-7.08-13.59-11-20c1.31-0.35,1.57-1.76,3-2C215.231,223.11,219.422,232.58,231.422,234.25z
			 M221.422,46.25c7.14,0.14,9.87-3.67,9-9c-0.61-3.74-6.46-5.73-9-7c-4.51,5.18-9.34,10.28-13,15c-1.18,1.52-4.5,3.27-4,6
			c4.78-0.55,5.53-5.14,10-6c4.97,5.5-1.63,9.98-2,16C219.542,60.37,218.712,51.54,221.422,46.25z M205.422,23.25
			c3.05,0.33,7.04,4.89,10,2c-3.82-2.18-6-6-12-6c-5.17,7.17-9.85,14.81-14,23c8.41,1.41,3.96-10.04,13-8c1.07-3.74-2.48-2.85-2-6
			C203.312,27.8,202.782,23.95,205.422,23.25z M192.422,202.25c-2.28-0.279-3.76,0.24-4,2
			C190.282,204.11,191.762,203.59,192.422,202.25z M187.422,38.25c1.35-6.35-7.52-2.48-7-8c2.23-6.77,5.26-12.74,8-19
			c-1.35-0.31-1.91-1.42-4-1c-4.09,7.24-6.67,15.99-9,25C179.892,35.78,183.072,37.6,187.422,38.25z M185.422,77.25
			c0.14-1.18,1.78-2.27,0-3C185.282,75.43,183.642,76.52,185.422,77.25z M176.422,166.25c-1.72-0.05-2.56,0.771-3,2
			C175.142,168.3,175.981,167.48,176.422,166.25z M174.422,93.25C175.042,94.7,175.632,93.15,174.422,93.25
			C173.802,91.8,173.212,93.35,174.422,93.25z M173.422,122.25c0.28,0.28,1.52-0.48,1-1
			C174.142,120.97,172.902,121.73,173.422,122.25z M171.422,34.25c0.67-10.67-1.93-18.07-2-28c-2.36,0.02-2.94-1.72-6-1
			c-2.28,3.21-4.62,6.99-7,11c-2.24,3.78-5.96,7.93-5,12c6.98-1.25,3.91-9.69,10-10C172.492,17.69,164.052,32.14,171.422,34.25z
			 M169.422,225.25C170.872,224.629,169.322,224.04,169.422,225.25C165.271,224.29,169.222,228.24,169.422,225.25z M167.422,166.25
			c0.28,0.28,1.52-0.479,1-1C168.142,164.97,166.902,165.73,167.422,166.25z M159.422,190.25c0.28,0.28,1.52-0.479,1-1
			C160.142,188.97,158.902,189.73,159.422,190.25z M156.422,88.25c3.21,0.79,4.37,3.63,7,5c-1.02-4.67-7.65-8.99-12-7
			c1.97,0.69,2.67,2.67,3,5c-2.51-0.42-5.51-5.46-7-1c6.67-1.39,7.22,11.93,12,6C155.182,97.43,156.072,88.35,156.422,88.25z
			 M160.422,104.25c-1.33,0.15-3.02-4.07-4-1C157.052,103.8,159.441,107.31,160.422,104.25z M159.422,62.25c-2.62-0.28-4.3,0.36-4,3
			C157.922,65.42,158.552,63.71,159.422,62.25z M157.422,188.25C158.872,187.629,157.322,187.04,157.422,188.25
			c-0.85-0.18-0.94,0.391-1,1c-2.06-0.88-4.49,2.591-2,3c0.35-1.31,1.76-1.569,2-3C157.271,189.43,157.362,188.86,157.422,188.25z
			 M149.422,197.25c-0.01-1.01-1.75-1.26-2,0C147.632,198.459,148.532,197.86,149.422,197.25z M146.422,93.25
			c0.78-0.22,1.97-0.03,2-1C147.642,92.47,146.452,92.28,146.422,93.25z M143.422,85.25c1.57-0.1,3.47,0.13,3-2c-0.67,0-1.33,0-2,0
			C144.422,84.25,143.612,84.44,143.422,85.25z M146.422,199.25c-2.5-0.17-3.13,1.54-4,3
			C144.922,202.419,145.552,200.709,146.422,199.25z M145.422,60.25c1.72,0.05,2.56-0.77,3-2
			C146.852,58.34,144.952,58.12,145.422,60.25z M140.422,97.25c0.25,2.29,3.18,2.64,3,1C143.352,97.61,140.162,94.89,140.422,97.25z
			 M140.422,103.25c0.28,0.28,1.52-0.48,1-1C141.142,101.97,139.902,102.73,140.422,103.25z M140.422,109.25
			c0.28,0.28,1.52-0.48,1-1C141.142,107.97,139.902,108.73,140.422,109.25z M138.422,59.25c0,0.55,0.81,1.13,1,0
			C139.422,58.69,138.612,58.11,138.422,59.25z M127.422,53.25c6.2-2.16,8.18,5.1,12,2c-4.89-3.1-10.01-6.73-15-7
			C123.952,51.39,127.112,50.89,127.422,53.25z M134.422,41.25c0.78-0.22,1.97-0.03,2-1C135.642,40.47,134.452,40.28,134.422,41.25z
			 M132.422,24.25c0.48-3.86,5.12-3.54,6-7c-1.17-2.83-6.18-1.82-5-7c-1,0-2,0-3,0c1.88,6.21-3.78,4.88-4,9
			C130.132,19.2,128.862,24.15,132.422,24.25z M132.422,156.25c0.28,0.28,1.52-0.479,1-1
			C133.142,154.97,131.902,155.73,132.422,156.25z M131.422,166.25c0.28,0.28,1.52-0.479,1-1
			C132.142,164.97,130.902,165.73,131.422,166.25z M129.422,208.25c1.23-1.409,5.21-0.5,2-3c-2.37,4.63-10.54,3.46-11,10
			C125.022,216.28,127.612,210.32,129.422,208.25z M130.422,172.25c0.28,0.28,1.52-0.479,1-1
			C131.142,170.97,129.902,171.73,130.422,172.25z M129.422,157.25c0,0.561,0.81,1.13,1,0
			C130.422,156.69,129.612,156.11,129.422,157.25z M128.422,106.25c0.78-0.22,1.97-0.03,2-1
			C129.642,105.47,128.452,105.28,128.422,106.25z M116.422,54.25c6.18-1.49,10.55,4.07,14,2c-3.3-2.36-8.99-2.34-11-6
			c-2.34,0.31-4.13,1.96-6,0C112.542,53.46,116.722,51.62,116.422,54.25z M127.422,40.25c0.28,0.28,1.52-0.48,1-1
			C128.142,38.97,126.902,39.73,127.422,40.25z M128.422,162.25c-2.16-2.26-3.41,0.83-7,0c1.36,3.03-0.13,6.5-5,6
			c-1.11,3.141-0.47,2.641,1,5c-1.46,2.2-7.92-0.59-8,3c-3.89,2.44-5.38,7.28-13,6c1.58-3.909-2.6-2.069-3-4
			c2.38-1.29,2.85-4.479,4-7c-2.13-0.47-1.9,1.431-2,3c-1.88,0.21-5.2,4.011-6,2c0.91-3.46,6.92-7.029,4-11
			c-1.44,2.42-3.11,8.16-7,5c-1.73,0.61,0.08,4.74-2,5c-0.89-0.779-2.26-1.08-4-1c0.15-2.479,0.19-4.85-2-5
			c-1.85,6.54-13.48,3.24-16-1c0.48,4.08-3.07,0.53-2-2c3.18,2.88,4.81-1.84,7-3c-0.16,1.16,0.22,1.78,1,2c1.96-5.05-6.3-6.909-3-12
			c0.51-0.79,1.89,0.511,2-1c-0.06,0.79-1.98-0.92-2-1c-0.62-2.14,2.71-2.729,2-5c-1.23-0.439-2.05-1.28-2-3
			c0.85,0.18,0.94-0.39,1-1c1.71,0.04,2.59-0.74,3-2c-1.71-0.04-2.59,0.74-3,2c-0.85-0.18-0.94,0.39-1,1c-4.19-0.94,0.66-5.11-4-6
			c2.29-3.62,4.75-1.11,8-3c-1.86-0.14-3.34-0.66-4-2c1.1,0.43,2.97-0.56,4,0c0.78,0.42,0.42,2.67,1,3c1.79,1.03,4.21-0.6,5,2
			c1.05,4.95,1.62,10.379,4,14c-0.03-6.31,0.4-13.06-1-18c0.37-1.73,3.02-6.18,1-7c-0.44,1.48-1.28-0.39-3,0
			c-1.73,0.61,0.08,4.74-2,5c-5.65-1.68-13.75-0.92-17-5c0.59-6.74,6.35-8.32,9-13c0.85,0.18,0.94-0.39,1-1c5.65-1.02,7.63-5.7,11-9
			c-0.4,5.3,4.26-3.44,5,0c0.13,7.96-2.39,15.75,0,23c2.48,0.15,4.85,0.19,5-2c1.45-0.62-0.1-1.21,0,0c-3.21,0.87-3.13-1.54-4-3
			c1.75-3.24,6-5.91,6-8c1.31-0.35,1.57-1.76,3-2c2.41,3.13,5.31-0.44,8,2c-0.14,1.86-0.66,3.34-2,4c-4.29,0.04-7.36,1.3-10,3
			c6.63-0.85-1.53,2.71,2,4c2.56-3.77,8.47-4.19,11-8c4.84,1.23,6.55,0.75,10-2c-4.26,0.4-9.09-2.18-7-5c-3.96,1.29-2.04-3.29-6-2
			c-1.03-4.31-5.07-5.59-9-7c-0.95-2.71-3.6-3.74-5-6c-2.67,0-5.33,0-8,0c0-2.33,0-4.67,0-7c2.77-2.33,6.63-6.65,7-9
			c0.15-0.96-0.14-4.19,1-5c0.26-0.19,1.87,0.26,2,0c0.5-0.98-0.64-3.13,0-4c0.2-0.27,1.68-0.63,2-1c2.33-2.68,5.39-5.27,11-7
			c1.21-0.38,2.75,0.27,4,0c1.71-0.38,2.57-1.79,4-2c1.55-0.22,3.7,1.11,6,1c2.58-0.12,5.03-1.97,8-1c1.79,0.28,2.05-0.95,1-1
			c-6.98,1.32-8.6-2.73-14-3c-0.01-3.66-1.98-5.36-4-7c2.96,3.9-1.79,6.67-5,4c-0.74,3.41,3.69,1.65,4,4
			c-12.56,3.77-20.41,12.26-25,24c-4.67,2.33-7.18,6.82-8,13c2.1,2.56,2.69,6.64,4,10c-1.65,4.01-6.08,5.25-8,9
			c-0.85-0.18-0.94,0.39-1,1c-2.7,0.41-4.62,3-7,5c-2.85,2.4-6.29,3.76-6,10c1.35,2.32,2.84,4.49,5,6c0.23,4.9-1.76,7.57-1,13
			c0.43,1.91,2.86,1.811,2,5c0.17,2.5-1.54,3.13-3,4c-0.5,1.63,1.72,2.32,1,4c-0.09,0.221-1.99,0.92-2,1c-0.23,1.74,1.08,2.141,1,4
			c-0.1,2.44-2.29,4.49-2,6c0.23,1.19,1.72,1.29,2,2c0.29,0.73-0.45,2.38,0,3c2.58,3.57,8.4,3.94,12,8c4.45-0.779,6,1.33,10,1
			c2.37,0.9,3.8,3.54,6,5c2.28,1.521,6.7,1.33,7,5c4.54-0.04,8.14,3.23,10,6c0.29,0.44-1.31,1.261-1,2c0.38,0.9,2.67,0.19,3,2
			c0.38,2.101-0.65,2.641-1,4c4.64,1.2,6.22,5.54,5,10c-1.88,1.45-5.2,1.471-6,4c1.7-0.37,1.89,0.78,2,2c5.25-1.09,7.41-5.25,11-8
			c-2.06,1.141-2.43-2.77-3-4c-0.77-1.68-2.01-4.359-2-8c-3.3-0.04-3.82-2.84-4-6c0.1-2.569,3.9-1.43,4-4c-5.53,1.771-3.85-1.38-9,0
			c1.15-2.93-4.8-3.71-2-5c4.49,2.04,7.68-0.52,12,2c0.61,1.45,1.21-0.1,0,0c-0.53-0.81-1.04-1.62-1-3c1.67,0,3.33,0,5,0
			c-0.04-4.67-2.84-1.909-6-2c1.24-3.239-3.24-0.77-2-4c0.74-2.92,5.4-1.939,5-6c-1.16,0.16-1.78-0.22-2-1c4.35,1.37,6.71-0.01,11-1
			c0.13-1.79-1.22-2.109-1-4c1.79-0.13,2.11,1.221,4,1c0.28-1.75-2.82-4.989,0-6c2.55,0.11,1.98,3.351,2,6c2.82,0.15,2.51-2.83,4-4
			C127.722,166.44,125.312,163.4,128.422,162.25z M125.422,150.25C126.872,149.629,125.322,149.04,125.422,150.25
			c-2.64,1.08-2.64,6.92,0,8C125.422,155.58,125.422,152.919,125.422,150.25z M121.422,138.25c1.49-0.89,4.59-0.93,4-4
			c-5.83-0.84-8.08,1.92-9,6C119.172,141.46,119.912,139.15,121.422,138.25z M120.422,40.25c1.45-0.55,5.17,1.17,5-1
			C124.152,37.89,120.522,37.71,120.422,40.25z M120.422,184.25c0.03-2.38,5.12-4.77,2-7c-0.26,1.561-2.19,0.69-3,0
			c0.48,3.15-3.07,2.261-2,6C118.802,183.209,119.622,183.72,120.422,184.25z M121.422,210.25c0.28,0.28,1.52-0.479,1-1
			C122.142,208.97,120.902,209.73,121.422,210.25z M119.422,158.25c0.28,0.28,1.52-0.479,1-1
			C120.142,156.97,118.902,157.73,119.422,158.25z M120.422,107.25c0-0.67,0-1.33,0-2c-0.67,0-1.33,0-2,0c0,0.67,0,1.33,0,2
			C119.092,107.25,119.752,107.25,120.422,107.25z M115.422,165.25c0.28,0.28,1.52-0.479,1-1
			C116.142,163.97,114.902,164.73,115.422,165.25z M114.422,41.25c-1.72-0.05-2.56,0.77-3,2
			C113.142,43.3,113.982,42.48,114.422,41.25z M113.422,171.25c0.55-3.479-6.71-4.27-7-1
			C109.082,170.26,112.132,169.87,113.422,171.25z M114.422,48.25C110.382,44.73,112.062,51.47,114.422,48.25L114.422,48.25z
			 M112.422,142.25C111.372,148.05,116.752,142.67,112.422,142.25L112.422,142.25z M113.422,223.25c-1.44-1.12-2.44-1.08-3,1
			c-1.44,0.561-2.44,1.561-3,3c2.18,0.181,3.18-0.819,3-3C111.842,224.34,113.252,224.41,113.422,223.25z M111.422,111.25
			c1.58-5.92-3.51-5.16-3-10c-3.06,0.72-3.64-1.02-6-1c1.17-3.29-1.82-2.65-3-4c-0.32-0.37,0.34-1.66,0-2c-1.27-1.27-4.1,0.06-3-3
			c-0.06-0.61-0.15-1.18-1-1c-0.17,1.16-1.58,1.09-3,1c-0.54,7.87,4.74,9.92,11,11C106.012,105.33,107.112,109.89,111.422,111.25z
			 M109.422,34.25c1.79-8.27-2.71-18.52-4-27c-1,0-2,0-3,0c-0.39,1.43-1.2,1.69,0,3C104.892,18.12,104.372,28.97,109.422,34.25z
			 M103.422,219.25c0.28,0.28,1.52-0.479,1-1C104.142,217.97,102.902,218.73,103.422,219.25z M102.422,175.25
			c0.78-0.22,1.97-0.029,2-1C103.642,174.47,102.452,174.28,102.422,175.25z M101.422,139.25c0.78-0.22,1.97-0.03,2-1
			C102.642,138.47,101.452,138.28,101.422,139.25z M103.422,44.25c-0.01-1.01-1.75-1.26-2,0
			C101.632,45.46,102.532,44.86,103.422,44.25z M101.422,51.25c0.28,0.28,1.52-0.48,1-1C102.142,49.97,100.902,50.73,101.422,51.25z
			 M98.422,224.25C102.832,224.44,98.702,220.31,98.422,224.25C94.272,223.29,98.222,227.24,98.422,224.25z M97.422,37.25
			c-0.6-9.07,1.24-20.57-1-28c-1,0-2,0-3,0c-2.12,4.41,3.62,14.16,0,20c-3.1-1.59-4.66-4.67-7-7c-2.67-2.66-4.15-6.69-9-6
			c-2.17,2.37,1.84,3.64,3,5C85.442,27.17,90.262,34.74,97.422,37.25z M89.422,228.25c1.72,0.051,2.56-0.77,3-2
			C90.852,226.35,88.952,226.12,89.422,228.25z M88.422,160.25c0.14-3.14-2.56-3.439-5-4C84.102,158.57,85.222,160.45,88.422,160.25
			z M86.422,225.25c0.28,0.28,1.52-0.479,1-1C87.142,223.97,85.902,224.73,86.422,225.25z M80.422,45.25c2.33-0.26,8.74-3,6-8
			c-4.56-0.56-4.23,3.77-9,3c-3.78-1.88-8.16-3.57-9-8c-1.18-6.18,2.64-8.4,5-13C54.492,23.87,69.862,46.44,80.422,45.25z
			 M73.422,171.25c0.28,0.28,1.52-0.479,1-1C74.142,169.97,72.902,170.73,73.422,171.25z M72.422,152.25
			C73.872,151.629,72.322,151.04,72.422,152.25c-0.81,0.19-1,1-2,1c0.09-1.42,0.17-2.83-1-3c-1.12,1.44-1.08,2.44,1,3
			c-0.09,1.42-0.17,2.83,1,3C72.202,155.36,72.502,153.99,72.422,152.25z M72.422,148.25c0.28-2.279-0.24-3.76-2-4
			C70.142,146.53,70.662,148.01,72.422,148.25z M71.422,54.25c0.43-4.32-4.9-4.45-7-6c-2.25-1.65-4.44-3.6-6-6
			c-2.42-3.72-1.04-7.69-5-11c-3.08,3.4,3.08,8.6,0,12c-4.27-0.66-9.76-7.05-12-1c4.55,2.45,10.32,3.68,14,7
			c1.48,3.86,3.11,7.56,3,13c-4.21,0.41-7.63,2.59-12,2c-2.95-0.4-9.47-4.3-10-8c-1.19-4.32,3.28-5.61,1-8c-1.71-1.81-3.93,0.31-4,3
			c-2.24,0.43-0.41,4.93-1,7c4.66,6.18,17.54,13.8,26,7c0-1,0-2,0-3c2.09,0.42,2.65-0.69,4-1c0.56-3.95-4.19-7.74-1-11
			C65.952,50.39,66.652,54.35,71.422,54.25z M70.422,159.25c0.15-1.05-0.77-2.58-1-1C69.272,159.3,70.192,160.83,70.422,159.25z
			 M67.422,171.25c0.28,0.28,1.52-0.479,1-1C68.142,169.97,66.902,170.73,67.422,171.25z M55.422,203.25c-0.22-0.779-0.84-1.159-2-1
			c-1.41,3.53-4.26,3.2-7,5c-1.49,0.98-2.64,2.99-4,4c-0.88,0.65-2.22,0.4-3,1c-0.56,0.431-1.41,1.46-2,2c-1.58,1.45-3.83,1.83-3,5
			c4.65-0.409,7.7-4.609,11-7c1.52-1.1,4.34-1.59,6-3C53.272,207.69,54.902,205.629,55.422,203.25z M51.422,196.25
			c-1.33,0-2.67,0-4,0c-4.43,3.86-10.55,7.391-15,10c-1.77,1.04-5.09,1.311-5,4c4.66,2.101,9.14-2.659,13-5
			C44.422,202.83,50.182,200.89,51.422,196.25z M44.422,79.25c1.66-2.34,5.58-2.42,5-7c-4.52-0.52-4.03,3.97-8,4
			c-6.59-1.75-12.99-3.67-15-10c0.31-2.36,3.47-1.86,3-5c-1.28-0.06-1.38-1.28-3-1C16.182,69.45,31.822,81,44.422,79.25z
			 M46.422,189.25c-3.6-1.25-8.35,1.811-11,3c-0.35,0.16-0.58,1.761-1,2c-4.15,2.36-10.46,3.471-12,8c5.12-0.189,9.25-2.949,13-5
			C39.412,195.07,43.952,193.05,46.422,189.25z M41.422,89.25c-0.02-2.36,1.72-2.94,1-6c-5.35-0.68-3.71,5.62-9,5
			c-5.03-1.97-11.4-2.6-13-8c-1.39-4.51,3.89-4.99,1-8c-1,0-2,0-3,0c-2.43,2.96-2.81,7.1-2,10c1.17,4.2,13.94,10.52,21,9
			C39.132,90.88,39.632,88.36,41.422,89.25z M9.422,174.25c1.75,11.32,30.56,1.801,27-7C31.972,157.62,8.352,167.28,9.422,174.25z
			 M34.422,108.25c1.77-1.89,0.73-6.61,1-10c-4.57-2.86-13.16-8.81-20-8c-2.92,0.34-3.96,2.37-7,3c-0.04,3.29-1.69,4.98-1,9
			C17.582,103.09,24.412,107.26,34.422,108.25z M33.422,157.25c-0.05-4.29-1.08-7.59-3-10c-5.9-0.569-10.31,0.351-12,4
			c-9-4.18-18.39,4.931-12,13C15.222,161.72,24.512,159.669,33.422,157.25z M22.422,131.25c3.62,0.16,8.3,3.23,10-1
			c-4.54-2.79-14.38-0.28-18-4c2.2-0.31,4.56-1.32,7-2c2.42-0.67,6.87,0.24,7-3c-2.19-3.15-8.01-2.66-10-6
			c2.91-3.21,13.36,4.01,14-3c-9.06-0.07-19.52-3.65-28-1c0,1,0,2,0,3c4.12,2.88,11.29,2.71,14,7c-4.56,3.11-11.99,3.35-16,7
			C6.832,130.97,15.612,130.94,22.422,131.25z M29.422,187.25c0-1,0-2,0-3c-1,0-2,0-3,0c0,1,0,2,0,3
			C27.422,187.25,28.422,187.25,29.422,187.25z"/>
		<path fill="#FFFFFF" d="M271.422,111.25c4.65,1.35,3.9,8.1,4,14c-3.71,2.38-8.93,4.04-13,1c-3.72-0.38-2.61,4.05-7,3
			c-6.81-0.66-11.13-7.55-9-14C255.882,115.04,262.932,112.43,271.422,111.25z M272.422,122.25c1.97-10.15-10-7.47-9,0
			C265.182,124.87,270.662,124.87,272.422,122.25z M255.422,125.25c2.7-0.97,4.83-2.51,5-6c-1.45-2.44-9.95-3.53-10,1
			C250.862,123.14,252.532,124.81,255.422,125.25z"/>
		<path fill="#FFFFFF" d="M275.422,136.25c-0.96,4.38,2.46,13.129-3,13c0-2.67,0-5.33,0-8c-2.97-2.44-9.41-2.78-11,1
			c-4.81,0.81-3.61-4.39-9-3c-3.92,2.27-1.83,5.03-2,10c-1.67,0-3.33,0-5,0c-0.79-5.12,1.4-7.26,1-12
			C256.242,135.39,265.191,135.78,275.422,136.25z"/>
		<path fill="#FAB017" d="M263.422,122.25c-1-7.47,10.97-10.15,9,0C270.662,124.87,265.182,124.87,263.422,122.25z"/>
		<path fill="#FFFFFF" d="M267.422,159.25c1.29,0.32,5.39,0.271,5,3c-0.65,3.891-7.18,0.71-11,0c-4.19-0.779-7.93-2.649-12-2
			c-2.28,2.391,0.17,9.5-5,9c-3.76-3.05,1.13-8.609,1-14c0.67,0,1.33,0,2,0C253.231,157.02,260.152,157.419,267.422,159.25z"/>
		<path fill="#FFFFFF" d="M270.422,96.25c0.18,6.64-14.45,13.82-23,12c-3.06-0.65-6.42-2.44-7-6c-0.77-4.73,4.45-7.35,7-9
			c2.75-1.78,6.36-3.58,11-4C266.271,88.54,270.252,89.88,270.422,96.25z M257.422,104.25c5.78-1.35,10.75-3.84,9-10
			c-6.88-4.46-22.37-0.12-21,9C247.552,106.15,252.941,105.3,257.422,104.25z"/>
		<path fill="#FAB017" d="M266.422,94.25c1.75,6.16-3.22,8.65-9,10c-4.48,1.05-9.87,1.9-12-1
			C244.052,94.13,259.542,89.79,266.422,94.25z"/>
		<path fill="#FFFFFF" d="M260.422,75.25c0.31,2.34-2.51,2.57-4,4c-1.38,1.32-8.85,3.31-12,5c-1.51,0.81-4.98,5.38-9,5
			c-1.74-4.15,2.74-7.71,5-11c2.57-3.73,5.5-6.85,7-11c-8.35,1.98-11.98,8.69-21,10c0.17-3.48,4.72-4.81,7-7c0.85-0.81,2.16-1.2,3-2
			c0.7-0.67,2.94-1.74,5-3c2.3-1.41,6-4.44,10-5c3.38,8.88-5.43,12.88-7,20C249.282,82.09,253.712,74.89,260.422,75.25z"/>
		<path fill="#FAB017" d="M260.422,119.25c-0.17,3.49-2.3,5.03-5,6c-2.89-0.44-4.56-2.11-5-5
			C250.472,115.72,258.972,116.81,260.422,119.25z"/>
		<path fill="#FFFFFF" d="M250.422,184.25c2.76-3.109,7.11,1.24,4,4C252.102,187.9,249.731,187.6,250.422,184.25z"/>
		<path fill="#FFFFFF" d="M253.422,205.25c-0.4,9.471-10.64,2.141-17,3c-1.33,3.7,8.4,4.91,8,11c-3.01,2.03-4.8-3.18-7-5
			c-0.83-0.689-2.24-0.29-3-1c-0.88-0.819-3.25-2.939-4-5c-3.78-0.22-4.86-3.14-8-4c2.46-5.649,7.6-0.149,13,1
			c3.91,0.83,8.01,0.511,12,1c-1.04-3.25-4.51-5.18-7-7c-2.59-1.89-5.57-4.31-9-5c-0.78-0.89-1.08-2.26-1-4
			C240.072,193.27,245.462,200.54,253.422,205.25z"/>
		<path fill="#FFFFFF" d="M232.422,54.25c2.07,0.6,3.79,1.55,3,5c-1.79-0.13-2.11,1.22-4,1
			C229.222,58.15,231.212,55.8,232.422,54.25z"/>
		<path fill="#FFFFFF" d="M233.422,231.25c-1.41,0.261-1.14,2.19-2,3c-12-1.67-16.19-11.14-28-13c-1.43,0.24-1.69,1.65-3,2
			c3.92,6.41,6.37,14.301,11,20c3.28-0.06,3.82-2.84,8-2c-0.07,3.841-5.07,4.4-8,6c-2.33,1.28-5.9,6.28-9,3
			c-0.96-3.63,4.49-0.84,4-4c-1.84-8.159-6.12-13.88-9-21c-5.18,1.07-9.21,3.351-14,5c-5.6,1.931-9.64,3.33-13,6
			c-0.34,10.12,6.26,18.261,4,27c-6.71-2.29-8.31-9.689-13-14c-5.39,2.61-0.25,15.75-7,17c-2.28-5.56-2.58-12.3-4-17
			c-0.11-0.38-1.84-1.47-2-2c-0.54-1.75,1.91-6.14-2-6c-0.79,5.141,0.54,16.78,0,25c-14.19,7.2-17.25-13.89-12-23
			c-0.19-1.479-2.42-0.92-4-1c-0.54,2.271,0.33,6.19,0,10c-0.38,4.49-2.41,8.86-3,12c-3.1,0.48-11.41,5.13-12-1
			c13.34,2.79,13.13-13.279,10-21c-3.71,0.71-4.29-1.71-8-1c-0.67,1.5,0.2,3.91,0,6c-0.63,6.521-4.7,13.311-9,16
			c-3.74,0.07-6.91-0.42-9-2c-0.06-4.39,4.45,0.681,8-1c4.78-2.89,6.82-8.51,7-16c-1.24-4.09-7.53-3.14-9-7
			c-1.78,3.221-0.93,9.07-2,13c-3.06,3.92-13.49,13.62-18,4c2.54-2.01,5.57,2.5,9,0c3.88-2.779,7.58-5.75,7-13
			c-0.17-3.83-6.43-1.569-6-6c4.1-1.069,9.21-1.659,12,1c3.24,1.23,0.76-3.239,4-2c0.19,1.48,2.42,0.92,4,1c0,1,0,2,0,3
			c5.32-0.87,9.45,1.641,14,1c2.2-0.31,2.86-1.93,5-3c2.19-1.1,3.77-0.449,5-1c0.37-0.17,0.54-1.79,1-2c2.41-1.109,6.27,1.091,6-3
			c4.8,1.771,5.99-1.56,12-1c-2.47,3.53-9.72,2.28-12,6c0.15,1.851,3.39,0.61,4,2c2.81-1.239,6.01-1.319,9-2
			c3.49-0.8,6.39-2.909,9-4c2.21-0.92,4.81-1.08,7-2c3.91-1.649,7.84-4.29,12-6c2.43-1,4.9-0.97,7-2c3.35-1.649,6.99-4.25,8-7
			c3.13-0.87,5.52-2.479,7-5c-4.53-4.8-9.33,3.69-16,3c0.24-1.43,1.65-1.689,2-3c-5.91-1.25-7.15,2.19-10,4
			c-3.24-1.67-2.13-1.46-7-1c2.75-3.8,11.05-6.659,17-4c2.91-0.87,1.12-1.5,1-4c3.73,1.061,3.23-2.109,5-3
			c-2.45-3.699-6.54-1.149-10-1c0.09-4.58,4.76-4.569,6-8c-0.11-1.22-0.3-2.37-2-2c1.47-3.659,1.05-6.38,0-8
			c-0.52-0.8-5.61-3.979-5-4c-2.51,0.07-4.3,5.051-6,5c-0.15-2.479,0.52-4.149,2-5c-1.13-0.35-2.87-4.93-4-2
			c-3.22-2.97,3.02-4.93,3-8c-3.12,0.69-3.9,4.24-6,6c-1.17,0.98-3.72,1.12-5,2c-0.42,0.29-0.6,1.63-1,2c-0.77,0.71-2.15,0.311-3,1
			c-1.16,0.94-0.96,2.95-2,4c-0.31,0.311-1.59-0.189-2,0c-0.88,0.391-2.63,2.721-3,3c-0.52,0.391-0.6,1.48-2,1c0-0.56-0.81-1.14-1,0
			c-4.04-4.38,4.35-5.899,6-7c0.82-0.55,1.14-2.449,2-3c2.56-1.64,6.61-2.67,8-4c2.47-2.37,3.88-3.51,5-6c0.17-0.38,1.82-0.52,2-1
			c0.92-2.38,0.17-4.109,0-7c-0.26-1.409-2.19-1.14-3-2c-0.14-2.949,5.08-4.89,1-6c-0.43-2.76,3.73-0.939,4-3
			c1.01-3.01-2.23-1.77-4-2c0.22-0.779,0.84-1.16,2-1c-5.86-3.17-13.16-0.97-20,0c0.1-2.57,3.9-1.43,4-4
			c-11.19-0.89-16.18,6.08-24,11c-2.71-0.62-7.94,1.271-9-1c-2.4-0.399,0.55,4.551-3,3c0.49-3.159-1.8-3.529-1-7
			c-1.17,0.17-1.09,1.58-1,3c-6.91-4.02,2.17-7.12,2-13c3.83-1.17,4.43-5.57,8-7c-0.13-2.47-0.15-4.82,1-6c2.62-0.28,4.3,0.36,4,3
			c1.21-3.85,1.03-12.24,6-15c6-0.67,9.14,1.53,12,4c0.18-3.51-3.38-3.29-4-6c-2.92,0.29-4.82-0.4-7,0c-3.09,0.57-4.37,4.4-7,2
			c-2.89,1.78-3.28,6.05-8,6c2.68-3.51,1.12-5.75,2-10c1.15,1.78,3.45,4.56,6,2c-3.01-5.32-10.41-6.25-18-7
			c-0.02-4.02,5.22-2.78,9-3c2.57,1.76,4.32,4.35,7,6c1.71-0.41-0.21-1.29,0-3c2.51,1.49,5.51,2.49,7,5c1.9-0.43,2.51-2.15,5-2
			c-0.24-1.76-1.72-2.28-4-2c5.76-3.53,8.92,7.64,15,4c3.45,3.22,5.22,8.12,9,11c-0.26,2.34-4.39,0.58-5,0
			c-3.91,2.96-2.07,7.75-2,13c1.76-0.24,2.28-1.72,2-4c1.48,0.19,0.92,2.42,1,4c1.76-0.24,2.28-1.72,2-4c3.65,2.09,0.49,4.78,0,8
			c3.42,1.63,3-0.12,5-2c1.8-0.13,2.34,0.99,2,3c3.1,1.31,2.85-0.27,7,0c1.55-3.56-3.4-0.6-3-3c-0.15-1.85-3.39-0.61-4-2
			c2.66-3.67,9.94-2.73,11-8c2.91,1.4-1.77,3.44-1,6c3.16-1.18,3.48-5.19,6-7c-0.07-2.93-2.29-3.71-4-5c1.13-1.2,2.85-1.81,2-5
			c2.49,0.11,3.1,1.87,5,0c-0.55-1.45,1.17-5.17-1-5c5.28-0.56,2.19-9.95,6-10c0,0.67,0,1.33,0,2c1.26-0.25,1.01-1.99,0-2
			c0-1,0-2,0-3c-1.89-0.22-2.21,1.13-4,1c-0.57-6.77-0.99-13.68-5-17c-2.4-0.4,0.55,4.55-3,3c-0.28,2.28,0.24,3.76,2,4
			c-2.31,2.24-5.46-3.15-5-7c2.57,2.59,4.24-0.84,5-3c-1.94,0.14-1.39-1.73-3-4c-2.38,0.63,0.16,6.15-2,7c-1.73-1.63-0.06-4.02-1-6
			c-0.46-0.96-2.18-1.95-3-3c-3.44,0.23-4.36,2.98-5,6c-1.93-1.85-0.79-1.83-4-1c-0.54-3.54,3.54-2.46,3-6c-0.24-1.43-1.65-1.69-2-3
			c-3.6-0.6-2.95,3.05-6,3c0-1,0-2,0-3c-2.66-1.67-4.94-3.73-10-3c1.18-5.85-5.55-3.78-8-6c0.43-4.71,4.51,1.41,7,1
			c6.19-0.53,10.32,1.01,13,4c5.77-0.11,9.86,1.48,13,4c2.09-1.51-3.84-3.43-3-7c-1.72,0.05-2.56-0.77-3-2c-1.22,0.11-2.37,0.3-2,2
			c-1.06-1.94-4.61-1.39-6-3c1.45-0.62-0.1-1.21,0,0c-2.52-1.82-6.85-1.82-7-6c-3.37,1.72-3.96-1.97-4-2c-0.66-0.42-2.24,0.23-3,0
			c-0.38-0.11-1.48-1.83-2-2c-5.77-1.91-6.17-0.25-10,1c1.91-2.02-1.89-3.99-5-4c1.39-2.28,6.96-0.37,10-1c0.11,1.89,3.31,0.69,3,3
			c2.81-1.45,4.69-0.54,8,0c0.91,0.15,0.65,0.87,1,1c0.79,0.3,2.07-0.99,2-1c1.26,0.25,2.86,1.62,4,2c2.01,0.67,4.67,0.36,6,1
			c1.14,0.55,2.97,3.47,5,5c0.42,0.31,1.51-0.22,2,0c0.29,0.13,0.67,1.75,1,2c3.08,2.36,2.98,1.73,4,4c0.12,0.27,1.75,0.7,2,1
			c2.31,2.77,3.65,3.11,6,5c3.59,2.88,6.05,7.46,10,9c2.87,7.13,5.1,14.9,10,20c-1.81,4.07,1.95,7.08,2,10
			c0.14,8.65-7.13,13.98-7,24c-2.24,2.16-4.14,5.92-5,8c-1.55,3.74-2.97,5.98-5,9c-1.21,1.79-3.25,3.06-4,5
			c-0.88,2.271-0.32,4.891-1,7c-0.22,0.69-1.92,1.87-2,3c-0.3,4.141,0.09,7.181,1,9c1.25,2.49,1.88,4.23,3,7
			c1.04,2.57,2.58,3.681,4,6c0.77,1.261,0.2,2.801,1,4c0.55,0.82,2.47,1.141,3,2c0.3,0.48-0.29,1.511,0,2
			c3.55,6.03,8.26,11.17,11,16c2.93,0.9,3.07,0.9,6,0C224.271,215.73,230.702,221.64,233.422,231.25z M229.422,230.25
			c0.4-4.729-2.06-6.6-5-8c-0.89,1.78-2.79,2.54-2,6C225.582,228.09,225.762,230.91,229.422,230.25z M222.422,219.25
			c-0.24-4.43-1.07-8.26-5-9c-3.7,1.971-7.18,4.15-8,9c3.6,0.73,4.85,3.82,10,3C219.981,220.81,220.981,219.81,222.422,219.25z
			 M202.422,87.25c0.28,0.28,1.52-0.48,1-1C203.142,85.97,201.902,86.73,202.422,87.25z M200.422,93.25c0.28,0.28,1.52-0.48,1-1
			C201.142,91.97,199.902,92.73,200.422,93.25z M200.422,88.25c0.29-0.61,2.49-3.85,0-4C200.132,84.86,197.932,88.1,200.422,88.25z
			 M185.422,131.25c1.12-0.1,1.56,1.45,2,0C187.412,130.24,185.672,129.99,185.422,131.25z M169.422,254.25
			c0.83-7.489-2.67-10.659-3-17C151.972,237.64,166.432,250.3,169.422,254.25z M166.422,130.25c-1,0-2,0-3,0
			c0.73,2.73-1.99,2.01-2,4c2.35,0.31,0.59,4.74,4,4C166.132,135.86,165.892,134.57,166.422,130.25z M162.422,124.25
			C165.422,124.05,161.462,120.1,162.422,124.25c-1.9,0.43-2.51,2.15-5,2c0.08,6.08-4.92,7.08-6,12c5.03-0.3,6.13-4.54,7-9
			C160.132,127.96,162.352,127.18,162.422,124.25z M160.422,123.25c0.55-0.55,0.03-2.03-1-1
			C158.872,122.8,159.392,124.28,160.422,123.25z M155.422,253.25c0.02-2.87,3.5-13.609-1-14c-0.17,1.16-1.58,1.091-3,1
			C151.452,245.89,152.981,250.02,155.422,253.25z M152.422,133.25c0.76-6.91,3.91-11.43,6-17c-1.91-0.43-1.81-2.86-5-2
			c-2.83,1.57,2.26,5.36-1,7c-2.4,0.4,0.55-4.56-3-3C150.132,123.53,150.782,128.89,152.422,133.25z M137.422,139.25
			c6.66-0.36,14.88-4.44,11-12c0.26,3.9-3.11,3.19-4,1c-0.97,5.69-7.45,5.88-9,11C136.092,139.25,136.752,139.25,137.422,139.25
			c-0.58,1.76,1.21,5.88-1,6c-2.31,0.31-1.11-2.89-3-3c-2.14,2.04,0.28,3.959,1,6c4.35,1.021,4.6-2.069,7-3c2.98-0.35,6.09-0.58,7-3
			c-4.02-1.61-7.32,2.58-8,1c-0.21-5.34,4.48,0.02,6-4C143.422,139.25,140.422,139.25,137.422,139.25z M147.422,139.25
			c0.28,0.28,1.52-0.48,1-1C148.142,137.97,146.902,138.73,147.422,139.25z M145.422,236.25c-1.5,0.17-3.69-0.359-4,1
			C142.922,237.08,145.112,237.61,145.422,236.25z M143.422,264.25c0.49-3.779,0.36-14.81-1-20
			C132.162,242.29,132.122,267.419,143.422,264.25z"/>
		<path fill="#FFFFFF" d="M230.422,37.25c0.87,5.33-1.86,9.14-9,9c-2.71,5.29-1.88,14.12-9,15c0.37-6.02,6.97-10.5,2-16
			c-4.47,0.86-5.22,5.45-10,6c-0.5-2.73,2.82-4.48,4-6c3.66-4.72,8.49-9.82,13-15C223.962,31.52,229.812,33.51,230.422,37.25z
			 M226.422,42.25c-0.22-1.89,1.13-2.21,1-4c-2.22-6.75-10.41-2.85-9,5C221.302,43.13,224.972,43.8,226.422,42.25z"/>
		<path fill="#FAB017" d="M224.422,222.25c2.94,1.4,5.4,3.271,5,8c-3.66,0.66-3.84-2.159-7-2
			C221.632,224.79,223.532,224.03,224.422,222.25z"/>
		<path fill="#FAB017" d="M227.422,38.25c0.13,1.79-1.22,2.11-1,4c-1.45,1.55-5.12,0.88-8,1
			C217.012,35.4,225.202,31.5,227.422,38.25z"/>
		<path fill="#FAB017" d="M217.422,210.25c3.93,0.74,4.76,4.57,5,9c-1.44,0.561-2.44,1.561-3,3c-5.15,0.82-6.4-2.27-10-3
			C210.242,214.4,213.722,212.22,217.422,210.25z"/>
		<path fill="#FFFFFF" d="M215.422,25.25c-2.96,2.89-6.95-1.67-10-2c-2.64,0.7-2.11,4.55-5,5c-0.48,3.15,3.07,2.26,2,6
			c-9.04-2.04-4.59,9.41-13,8c4.15-8.19,8.83-15.83,14-23C209.422,19.25,211.602,23.07,215.422,25.25z"/>
		<path fill="#FAB017" d="M203.422,98.25c1.01,0.01,1.26,1.75,0,2C203.422,99.58,203.422,98.92,203.422,98.25z"/>
		<path fill="#FAB017" d="M203.422,86.25c0.52,0.52-0.72,1.28-1,1C201.902,86.73,203.142,85.97,203.422,86.25z"/>
		<path fill="#FAB017" d="M201.422,92.25c0.52,0.52-0.72,1.28-1,1C199.902,92.73,201.142,91.97,201.422,92.25z"/>
		<path fill="#FAB017" d="M200.422,84.25c2.49,0.15,0.29,3.39,0,4C197.932,88.1,200.132,84.86,200.422,84.25z"/>
		<path fill="#FAB017" d="M190.422,72.25c1.61,2.27,1.06,4.14,3,4c-0.76,2.16-2.43,5.59-5,3
			C190.582,78.4,188.042,72.88,190.422,72.25z"/>
		<path fill="#FFFFFF" d="M188.422,204.25c0.24-1.76,1.72-2.279,4-2C191.762,203.59,190.282,204.11,188.422,204.25z"/>
		<path fill="#FFFFFF" d="M184.422,202.25c0.14-2.859,4.17-1.83,7-2C190.242,202.07,186.212,201.04,184.422,202.25z"/>
		<path fill="#FFFFFF" d="M180.422,30.25c-0.52,5.52,8.35,1.65,7,8c-4.35-0.65-7.53-2.47-12-3c2.33-9.01,4.91-17.76,9-25
			c2.09-0.42,2.65,0.69,4,1C185.682,17.51,182.652,23.48,180.422,30.25z"/>
		<path fill="#FAB017" d="M187.422,131.25c-0.44,1.45-0.88-0.1-2,0C185.672,129.99,187.412,130.24,187.422,131.25z"/>
		<path fill="#FFFFFF" d="M185.422,74.25c1.78,0.73,0.14,1.82,0,3C183.642,76.52,185.282,75.43,185.422,74.25z"/>
		<path fill="#FFFFFF" d="M184.422,183.25C184.222,186.24,180.271,182.29,184.422,183.25L184.422,183.25z"/>
		<path fill="#FFFFFF" d="M181.422,146.25C181.521,147.459,179.972,146.86,181.422,146.25L181.422,146.25z"/>
		<path fill="#FFFFFF" d="M173.422,168.25c0.44-1.229,1.28-2.05,3-2C175.981,167.48,175.142,168.3,173.422,168.25z"/>
		<path fill="#FFFFFF" d="M174.422,93.25C175.632,93.15,175.042,94.7,174.422,93.25L174.422,93.25z"/>
		<path fill="#FFFFFF" d="M174.422,121.25c0.52,0.52-0.72,1.28-1,1C172.902,121.73,174.142,120.97,174.422,121.25z"/>
		<path fill="#FFFFFF" d="M174.422,93.25C173.212,93.35,173.802,91.8,174.422,93.25L174.422,93.25z"/>
		<path fill="#FAB017" d="M171.422,56.25C171.322,55.04,172.872,55.63,171.422,56.25L171.422,56.25z"/>
		<path fill="#FFFFFF" d="M169.422,6.25c0.07,9.93,2.67,17.33,2,28c-7.37-2.11,1.07-16.56-10-16c-6.09,0.31-3.02,8.75-10,10
			c-0.96-4.07,2.76-8.22,5-12c2.38-4.01,4.72-7.79,7-11C166.481,4.53,167.062,6.27,169.422,6.25z M166.422,16.25
			c0.74-2.34,0.69-5.63-1-8c-1.16,2.51-3.98,3.35-4,7C163.742,14.93,165.262,15.41,166.422,16.25z"/>
		<path fill="#FFFFFF" d="M169.422,225.25C169.322,224.04,170.872,224.629,169.422,225.25L169.422,225.25z"/>
		<path fill="#FAB017" d="M166.422,237.25c0.33,6.341,3.83,9.511,3,17C166.432,250.3,151.972,237.64,166.422,237.25z"/>
		<path fill="#FFFFFF" d="M169.422,225.25C169.222,228.24,165.271,224.29,169.422,225.25L169.422,225.25z"/>
		<path fill="#FFFFFF" d="M168.422,165.25c0.52,0.521-0.72,1.28-1,1C166.902,165.73,168.142,164.97,168.422,165.25z"/>
		<path fill="#FAB017" d="M165.422,8.25c1.69,2.37,1.74,5.66,1,8c-1.16-0.84-2.68-1.32-5-1C161.441,11.6,164.262,10.76,165.422,8.25
			z"/>
		<path fill="#FAB017" d="M163.422,130.25c1,0,2,0,3,0c-0.53,4.32-0.29,5.61-1,8c-3.41,0.74-1.65-3.69-4-4
			C161.432,132.26,164.152,132.98,163.422,130.25z"/>
		<path fill="#FFFFFF" d="M158.422,229.25c1.73-1.27,2.62-3.38,6-3C163.512,228.34,161.472,229.3,158.422,229.25z"/>
		<path fill="#FAB017" d="M162.422,124.25C161.462,120.1,165.422,124.05,162.422,124.25L162.422,124.25z"/>
		<path fill="#FAB017" d="M162.422,124.25c-0.07,2.93-2.29,3.71-4,5c-0.87,4.46-1.97,8.7-7,9c1.08-4.92,6.08-5.92,6-12
			C159.912,126.4,160.521,124.68,162.422,124.25z"/>
		<path fill="#FAB017" d="M159.422,122.25c1.03-1.03,1.55,0.45,1,1C159.392,124.28,158.872,122.8,159.422,122.25z"/>
		<path fill="#FFFFFF" d="M160.422,189.25c0.52,0.521-0.72,1.28-1,1C158.902,189.73,160.142,188.97,160.422,189.25z"/>
		<path fill="#FFFFFF" d="M163.422,93.25c-2.63-1.37-3.79-4.21-7-5c-0.35,0.1-1.24,9.18,3,8c-4.78,5.93-5.33-7.39-12-6
			c1.49-4.46,4.49,0.58,7,1c-0.33-2.33-1.03-4.31-3-5C155.771,84.26,162.402,88.58,163.422,93.25z"/>
		<path fill="#FFFFFF" d="M156.422,103.25c0.98-3.07,2.67,1.15,4,1C159.441,107.31,157.052,103.8,156.422,103.25z"/>
		<path fill="#FFFFFF" d="M155.422,65.25c-0.3-2.64,1.38-3.28,4-3C158.552,63.71,157.922,65.42,155.422,65.25z"/>
		<path fill="#FFFFFF" d="M157.422,188.25C157.322,187.04,158.872,187.629,157.422,188.25L157.422,188.25z"/>
		<path fill="#FFFFFF" d="M156.422,189.25c0.06-0.609,0.15-1.18,1-1C157.362,188.86,157.271,189.43,156.422,189.25z"/>
		<path fill="#FFFFFF" d="M154.422,192.25c-2.49-0.409-0.06-3.88,2-3C156.182,190.68,154.771,190.94,154.422,192.25z"/>
		<path fill="#FAB017" d="M154.422,239.25c4.5,0.391,1.02,11.13,1,14c-2.44-3.229-3.97-7.359-4-13
			C152.842,240.34,154.252,240.41,154.422,239.25z"/>
		<path fill="#FAB017" d="M158.422,116.25c-2.09,5.57-5.24,10.09-6,17c-1.64-4.36-2.29-9.72-3-15c3.55-1.56,0.6,3.4,3,3
			c3.26-1.64-1.83-5.43,1-7C156.612,113.39,156.512,115.82,158.422,116.25z"/>
		<path fill="#FFFFFF" d="M148.422,53.25C149.632,53.15,149.042,54.7,148.422,53.25L148.422,53.25z"/>
		<path fill="#FAB017" d="M148.422,127.25c3.88,7.56-4.34,11.64-11,12c-0.67,0-1.33,0-2,0c1.55-5.12,8.03-5.31,9-11
			C145.312,130.44,148.682,131.15,148.422,127.25z"/>
		<path fill="#FFFFFF" d="M147.422,197.25c0.25-1.26,1.99-1.01,2,0C148.532,197.86,147.632,198.459,147.422,197.25z"/>
		<path fill="#FAB017" d="M148.422,138.25c0.52,0.52-0.72,1.28-1,1C146.902,138.73,148.142,137.97,148.422,138.25z"/>
		<path fill="#FFFFFF" d="M148.422,92.25c-0.03,0.97-1.22,0.78-2,1C146.452,92.28,147.642,92.47,148.422,92.25z"/>
		<path fill="#FAB017" d="M140.422,143.25c0.68,1.58,3.98-2.61,8-1c-0.91,2.42-4.02,2.65-7,3c-2.4,0.93-2.65,4.02-7,3
			c-0.72-2.04-3.14-3.959-1-6c1.89,0.11,0.69,3.31,3,3c2.21-0.12,0.42-4.24,1-6c3,0,6,0,9,0
			C144.902,143.27,140.212,137.91,140.422,143.25z"/>
		<path fill="#FFFFFF" d="M146.422,83.25c0.47,2.13-1.43,1.9-3,2c0.19-0.81,1-1,1-2C145.092,83.25,145.752,83.25,146.422,83.25z"/>
		<path fill="#FFFFFF" d="M142.422,202.25c0.87-1.46,1.5-3.17,4-3C145.552,200.709,144.922,202.419,142.422,202.25z"/>
		<path fill="#FFFFFF" d="M148.422,58.25c-0.44,1.23-1.28,2.05-3,2C144.952,58.12,146.852,58.34,148.422,58.25z"/>
		<path fill="#FFFFFF" d="M145.422,47.25c-0.87,3.87,2.44,3.56,3,6c-4.08-0.58-8.41-0.92-8-6
			C143.502,47.95,142.342,47.95,145.422,47.25z"/>
		<path fill="#FAB017" d="M141.422,237.25c0.31-1.359,2.5-0.83,4-1C145.112,237.61,142.922,237.08,141.422,237.25z"/>
		<path fill="#FAB017" d="M142.422,244.25c1.36,5.19,1.49,16.221,1,20C132.122,267.419,132.162,242.29,142.422,244.25z"/>
		<path fill="#FFFFFF" d="M143.422,98.25c0.18,1.64-2.75,1.29-3-1C140.162,94.89,143.352,97.61,143.422,98.25z"/>
		<path fill="#FFFFFF" d="M141.422,102.25c0.52,0.52-0.72,1.28-1,1C139.902,102.73,141.142,101.97,141.422,102.25z"/>
		<path fill="#FFFFFF" d="M141.422,108.25c0.52,0.52-0.72,1.28-1,1C139.902,108.73,141.142,107.97,141.422,108.25z"/>
		<path fill="#FFFFFF" d="M139.422,59.25c-0.19,1.13-1,0.55-1,0C138.612,58.11,139.422,58.69,139.422,59.25z"/>
		<path fill="#FFFFFF" d="M138.422,108.25C135.422,108.05,139.382,104.1,138.422,108.25L138.422,108.25z"/>
		<path fill="#FFFFFF" d="M139.422,55.25c-3.82,3.1-5.8-4.16-12-2c-0.31-2.36-3.47-1.86-3-5
			C129.412,48.52,134.532,52.15,139.422,55.25z"/>
		<path fill="#FFFFFF" d="M136.422,40.25c-0.03,0.97-1.22,0.78-2,1C134.452,40.28,135.642,40.47,136.422,40.25z"/>
		<path fill="#FFFFFF" d="M138.422,17.25c-0.88,3.46-5.52,3.14-6,7c-3.56-0.1-2.29-5.05-6-5c0.22-4.12,5.88-2.79,4-9c1,0,2,0,3,0
			C132.242,15.43,137.252,14.42,138.422,17.25z"/>
		<path fill="#FFFFFF" d="M133.422,155.25c0.52,0.521-0.72,1.28-1,1C131.902,155.73,133.142,154.97,133.422,155.25z"/>
		<path fill="#FFFFFF" d="M132.422,165.25c0.52,0.521-0.72,1.28-1,1C130.902,165.73,132.142,164.97,132.422,165.25z"/>
		<path fill="#FFFFFF" d="M131.422,205.25c3.21,2.5-0.77,1.591-2,3c-1.81,2.07-4.4,8.03-9,7
			C120.882,208.709,129.052,209.879,131.422,205.25z"/>
		<path fill="#FFFFFF" d="M131.422,171.25c0.52,0.521-0.72,1.28-1,1C129.902,171.73,131.142,170.97,131.422,171.25z"/>
		<path fill="#FFFFFF" d="M130.422,157.25c-0.19,1.13-1,0.561-1,0C129.612,156.11,130.422,156.69,130.422,157.25z"/>
		<path fill="#FFFFFF" d="M130.422,105.25c-0.03,0.97-1.22,0.78-2,1C128.452,105.28,129.642,105.47,130.422,105.25z"/>
		<path fill="#FFFFFF" d="M130.422,56.25c-3.45,2.07-7.82-3.49-14-2c0.3-2.63-3.88-0.79-3-4c1.87,1.96,3.66,0.31,6,0
			C121.432,53.91,127.122,53.89,130.422,56.25z"/>
		<path fill="#FFFFFF" d="M128.422,39.25c0.52,0.52-0.72,1.28-1,1C126.902,39.73,128.142,38.97,128.422,39.25z"/>
		<path fill="#FFFFFF" d="M121.422,162.25c3.59,0.83,4.84-2.26,7,0c-3.11,1.15-0.7,4.19,1,6c-1.49,1.17-1.18,4.15-4,4
			c-0.02-2.649,0.55-5.89-2-6c-2.82,1.011,0.28,4.25,0,6c-1.89,0.221-2.21-1.13-4-1c-0.22,1.891,1.13,2.21,1,4
			c-4.29,0.99-6.65,2.37-11,1c0.08-3.59,6.54-0.8,8-3c-1.47-2.359-2.11-1.859-1-5C121.292,168.75,122.782,165.28,121.422,162.25z"/>
		<path fill="#FFFFFF" d="M125.422,150.25C125.322,149.04,126.872,149.629,125.422,150.25L125.422,150.25z"/>
		<path fill="#FFFFFF" d="M125.422,134.25c0.59,3.07-2.51,3.11-4,4c-1.51,0.9-2.25,3.21-5,2
			C117.342,136.17,119.592,133.41,125.422,134.25z"/>
		<path fill="#FFFFFF" d="M125.422,39.25c0.17,2.17-3.55,0.45-5,1C120.522,37.71,124.152,37.89,125.422,39.25z"/>
		<path fill="#FFFFFF" d="M125.422,150.25c0,2.67,0,5.33,0,8C122.782,157.169,122.782,151.33,125.422,150.25z"/>
		<path fill="#FFFFFF" d="M123.422,58.25c1.05,0.05,0.79,1.28-1,1c-2.97-0.97-5.42,0.88-8,1c-2.3,0.11-4.45-1.22-6-1
			c-1.43,0.21-2.29,1.62-4,2c-1.25,0.27-2.79-0.38-4,0c-5.61,1.73-8.67,4.32-11,7c-0.32,0.37-1.8,0.73-2,1c-0.64,0.87,0.5,3.02,0,4
			c-0.13,0.26-1.74-0.19-2,0c-1.14,0.81-0.85,4.04-1,5c-0.37,2.35-4.23,6.67-7,9c0,2.33,0,4.67,0,7c2.67,0,5.33,0,8,0
			c1.4,2.26,4.05,3.29,5,6c3.93,1.41,7.97,2.69,9,7c3.96-1.29,2.04,3.29,6,2c-2.09,2.82,2.74,5.4,7,5c-3.45,2.75-5.16,3.23-10,2
			c-2.53,3.81-8.44,4.23-11,8c-3.53-1.29,4.63-4.85-2-4c2.64-1.7,5.71-2.96,10-3c1.34-0.66,1.86-2.14,2-4c-2.69-2.44-5.59,1.13-8-2
			c-1.43,0.24-1.69,1.65-3,2c0,2.09-4.25,4.76-6,8c0.87,1.46,0.79,3.87,4,3c-0.15,2.19-2.52,2.15-5,2c-2.39-7.25,0.13-15.04,0-23
			c-0.74-3.44-5.4,5.3-5,0c-3.37,3.3-5.35,7.98-11,9c1.92-3.75,6.35-4.99,8-9c-1.31-3.36-1.9-7.44-4-10c0.82-6.18,3.33-10.67,8-13
			c4.59-11.74,12.44-20.23,25-24c-0.31-2.35-4.74-0.59-4-4c3.21,2.67,7.96-0.1,5-4c2.02,1.64,3.99,3.34,4,7
			C114.822,55.52,116.442,59.57,123.422,58.25z M92.422,108.25c1.29,0.87,3.75,4.86,5,2c-3.71-1.29-3.71-6.29-9-6
			C86.822,107.63,90.842,107.18,92.422,108.25z M86.422,108.25c-0.46,3.12,2.14,3.2,5,3C91.012,106.95,88.002,109.92,86.422,108.25z
			"/>
		<path fill="#FFFFFF" d="M122.422,177.25c3.12,2.23-1.97,4.62-2,7c-0.8-0.529-1.62-1.04-3-1c-1.07-3.739,2.48-2.85,2-6
			C120.232,177.94,122.162,178.81,122.422,177.25z"/>
		<path fill="#FFFFFF" d="M122.422,209.25c0.52,0.521-0.72,1.28-1,1C120.902,209.73,122.142,208.97,122.422,209.25z"/>
		<path fill="#FFFFFF" d="M120.422,157.25c0.52,0.521-0.72,1.28-1,1C118.902,157.73,120.142,156.97,120.422,157.25z"/>
		<path fill="#FFFFFF" d="M120.422,105.25c0,0.67,0,1.33,0,2c-0.67,0-1.33,0-2,0c0-0.67,0-1.33,0-2
			C119.092,105.25,119.752,105.25,120.422,105.25z"/>
		<path fill="#FFFFFF" d="M116.422,164.25c0.52,0.521-0.72,1.28-1,1C114.902,164.73,116.142,163.97,116.422,164.25z"/>
		<path fill="#FFFFFF" d="M111.422,43.25c0.44-1.23,1.28-2.05,3-2C113.982,42.48,113.142,43.3,111.422,43.25z"/>
		<path fill="#FFFFFF" d="M114.422,189.25c-1.67,0-3.33,0-5,0c-0.04,1.38,0.47,2.19,1,3c-4.32-2.52-7.51,0.04-12-2
			c-2.8,1.29,3.15,2.07,2,5c5.15-1.38,3.47,1.771,9,0c-0.1,2.57-3.9,1.431-4,4c0.18,3.16,0.7,5.96,4,6c-0.01,3.641,1.23,6.32,2,8
			c0.57,1.23,0.94,5.141,3,4c-3.59,2.75-5.75,6.91-11,8c-0.11-1.22-0.3-2.37-2-2c0.8-2.529,4.12-2.55,6-4c1.22-4.46-0.36-8.8-5-10
			c0.35-1.359,1.38-1.899,1-4c-0.33-1.81-2.62-1.1-3-2c-0.31-0.739,1.29-1.56,1-2c-1.86-2.77-5.46-6.04-10-6
			c-0.3-3.67-4.72-3.479-7-5c-2.2-1.46-3.63-4.1-6-5c-4,0.33-5.55-1.779-10-1c-3.6-4.06-9.42-4.43-12-8c-0.45-0.62,0.29-2.27,0-3
			c-0.28-0.71-1.77-0.81-2-2c-0.29-1.51,1.9-3.56,2-6c0.08-1.859-1.23-2.26-1-4c0.01-0.08,1.91-0.779,2-1c0.72-1.68-1.5-2.37-1-4
			c1.46-0.87,3.17-1.5,3-4c0.86-3.189-1.57-3.09-2-5c-0.76-5.43,1.23-8.1,1-13c-2.16-1.51-3.65-3.68-5-6c-0.29-6.24,3.15-7.6,6-10
			c2.38-2,4.3-4.59,7-5c-2.65,4.68-8.41,6.26-9,13c3.25,4.08,11.35,3.32,17,5c2.08-0.26,0.27-4.39,2-5c1.72-0.39,2.56,1.48,3,0
			c2.02,0.82-0.63,5.27-1,7c1.4,4.94,0.97,11.69,1,18c-2.38-3.62-2.95-9.05-4-14c-0.79-2.6-3.21-0.97-5-2c-0.58-0.33-0.22-2.58-1-3
			c-1.03-0.56-2.9,0.43-4,0c0.66,1.34,2.14,1.86,4,2c-3.25,1.89-5.71-0.62-8,3c4.66,0.89-0.19,5.06,4,6c-0.05,1.72,0.77,2.56,2,3
			c0.71,2.271-2.62,2.86-2,5c0.02,0.08,1.94,1.79,2,1c-0.11,1.511-1.49,0.21-2,1c-3.3,5.091,4.96,6.95,3,12
			c-0.78-0.22-1.16-0.84-1-2c-2.19,1.16-3.82,5.88-7,3c-1.07,2.53,2.48,6.08,2,2c2.52,4.24,14.15,7.54,16,1
			c2.19,0.15,2.15,2.521,2,5c1.74-0.08,3.11,0.221,4,1c2.08-0.26,0.27-4.39,2-5c3.89,3.16,5.56-2.58,7-5c2.92,3.971-3.09,7.54-4,11
			c0.8,2.011,4.12-1.79,6-2c0.1-1.569-0.13-3.47,2-3c-1.15,2.521-1.62,5.71-4,7c0.4,1.931,4.58,0.091,3,4c7.62,1.28,9.11-3.56,13-6
			c0.22,0.78,0.84,1.16,2,1c0.4,4.061-4.26,3.08-5,6c-1.24,3.23,3.24,0.761,2,4C111.582,187.34,114.382,184.58,114.422,189.25z
			 M99.422,186.25c0.28,0.28,1.52-0.479,1-1C100.142,184.97,98.902,185.73,99.422,186.25z M93.422,181.25c-1.97,1.42,2.8,7.94,5,5
			C96.582,184.75,95.932,182.08,93.422,181.25z"/>
		<path fill="#FFFFFF" d="M106.422,170.25c0.29-3.27,7.55-2.479,7,1C112.132,169.87,109.082,170.26,106.422,170.25z"/>
		<path fill="#FFFFFF" d="M114.422,48.25C112.062,51.47,110.382,44.73,114.422,48.25L114.422,48.25z"/>
		<path fill="#FFFFFF" d="M112.422,142.25C116.752,142.67,111.372,148.05,112.422,142.25L112.422,142.25z"/>
		<path fill="#FFFFFF" d="M110.422,224.25c0.56-2.08,1.56-2.12,3-1C113.252,224.41,111.842,224.34,110.422,224.25z"/>
		<path fill="#FFFFFF" d="M108.422,101.25c-0.51,4.84,4.58,4.08,3,10c-4.31-1.36-5.41-5.92-8-9c-6.26-1.08-11.54-3.13-11-11
			c1.42,0.09,2.83,0.16,3-1c0.85-0.18,0.94,0.39,1,1c-1.1,3.06,1.73,1.73,3,3c0.34,0.34-0.32,1.63,0,2c1.18,1.35,4.17,0.71,3,4
			C104.782,100.23,105.362,101.97,108.422,101.25z"/>
		<path fill="#FFFFFF" d="M110.422,192.25C111.632,192.15,111.032,193.7,110.422,192.25L110.422,192.25z"/>
		<path fill="#FFFFFF" d="M110.422,224.25c0.18,2.181-0.82,3.181-3,3C107.982,225.81,108.982,224.81,110.422,224.25z"/>
		<path fill="#FFFFFF" d="M105.422,7.25c1.29,8.48,5.79,18.73,4,27c-5.05-5.28-4.53-16.13-7-24c-1.2-1.31-0.39-1.57,0-3
			C103.422,7.25,104.422,7.25,105.422,7.25z"/>
		<path fill="#FFFFFF" d="M104.422,218.25c0.52,0.521-0.72,1.28-1,1C102.902,218.73,104.142,217.97,104.422,218.25z"/>
		<path fill="#FFFFFF" d="M104.422,174.25c-0.03,0.971-1.22,0.78-2,1C102.452,174.28,103.642,174.47,104.422,174.25z"/>
		<path fill="#FFFFFF" d="M103.422,138.25c-0.03,0.97-1.22,0.78-2,1C101.452,138.28,102.642,138.47,103.422,138.25z"/>
		<path fill="#FFFFFF" d="M101.422,44.25c0.25-1.26,1.99-1.01,2,0C102.532,44.86,101.632,45.46,101.422,44.25z"/>
		<path fill="#FFFFFF" d="M102.422,50.25c0.52,0.52-0.72,1.28-1,1C100.902,50.73,102.142,49.97,102.422,50.25z"/>
		<path fill="#FAB017" d="M100.422,185.25c0.52,0.521-0.72,1.28-1,1C98.902,185.73,100.142,184.97,100.422,185.25z"/>
		<path fill="#FFFFFF" d="M98.422,224.25C98.702,220.31,102.832,224.44,98.422,224.25L98.422,224.25z"/>
		<path fill="#FFFFFF" d="M99.422,231.25c1.55,4.221-5.55-0.22-4,4c-4.65,0.681-6.77,3.891-11,5c-1.51,4.49,1.19,13.19-4,14
			c0.45-3.8-2.59-7.12,0-10c-4.1,0.08-8.63,7.49-12,2c5.06-0.939,7.16-4.84,12-6c0-3,0-6,0-9c-9.57-1.1-13.77,8.04-12,15
			c-5.18-0.1-3.86-5.149-3-9c-2.75-3.01-6.94,1-10,1c-3.31-0.35-4.34-3-6-5c0.72-2.279,0.89-5.109,2-7c-3.14-3.89-7.44,3.11-10,0
			c-0.01-5.01,7.8-2.199,10-5c1.43-0.239,1.69-1.649,3-2c1.75-4.58,2.12-10.55,7-12c0.34,4.681-2.16,6.511-3,10
			c3.28,2.891,7.35-1.939,12-1c0.41,1.261,1.29,2.04,3,2c0.42,4.75-1.45,7.21-2,11c5.67,0.67,6.75-3.25,11-4
			c4.15,2.29-0.29,8.15,2,11C88.982,234.14,93.012,231.51,99.422,231.25z M67.422,230.25c-0.86-4.859,2.86-5.14,2-10
			c-4.81,0.521-8.54,2.13-13,3c-0.91,3.75-2.26,7.07-3,11C59.592,234.419,63.212,232.04,67.422,230.25z"/>
		<path fill="#FFFFFF" d="M98.422,224.25C98.222,227.24,94.272,223.29,98.422,224.25L98.422,224.25z"/>
		<path fill="#FFFFFF" d="M96.422,9.25c2.24,7.43,0.4,18.93,1,28c-7.16-2.51-11.98-10.08-17-16c-1.16-1.36-5.17-2.63-3-5
			c4.85-0.69,6.33,3.34,9,6c2.34,2.33,3.9,5.41,7,7c3.62-5.84-2.12-15.59,0-20C94.422,9.25,95.422,9.25,96.422,9.25z"/>
		<path fill="#FAB017" d="M98.422,186.25c-2.2,2.94-6.97-3.58-5-5C95.932,182.08,96.582,184.75,98.422,186.25z"/>
		<path fill="#FAB017" d="M97.422,110.25c-1.25,2.86-3.71-1.13-5-2c-1.58-1.07-5.6-0.62-4-4
			C93.712,103.96,93.712,108.96,97.422,110.25z"/>
		<path fill="#FAB017" d="M91.422,111.25c-2.86,0.2-5.46,0.12-5-3C88.002,109.92,91.012,106.95,91.422,111.25z"/>
		<path fill="#FFFFFF" d="M92.422,226.25c-0.44,1.23-1.28,2.051-3,2C88.952,226.12,90.852,226.35,92.422,226.25z"/>
		<path fill="#FFFFFF" d="M88.422,124.25C88.322,123.04,89.872,123.63,88.422,124.25L88.422,124.25z"/>
		<path fill="#FFFFFF" d="M83.422,156.25c2.44,0.561,5.14,0.86,5,4C85.222,160.45,84.102,158.57,83.422,156.25z"/>
		<path fill="#FFFFFF" d="M87.422,224.25c0.52,0.521-0.72,1.28-1,1C85.902,224.73,87.142,223.97,87.422,224.25z"/>
		<path fill="#FFFFFF" d="M86.422,37.25c2.74,5-3.67,7.74-6,8c-10.56,1.19-25.93-21.38-7-26c-2.36,4.6-6.18,6.82-5,13
			c0.84,4.43,5.22,6.12,9,8C82.192,41.02,81.862,36.69,86.422,37.25z"/>
		<path fill="#FAB017" d="M80.422,231.25c0,3,0,6,0,9c-4.84,1.16-6.94,5.061-12,6C66.652,239.29,70.852,230.15,80.422,231.25z"/>
		<path fill="#FFFFFF" d="M74.422,170.25c0.52,0.521-0.72,1.28-1,1C72.902,170.73,74.142,169.97,74.422,170.25z"/>
		<path fill="#FFFFFF" d="M72.422,152.25C72.322,151.04,73.872,151.629,72.422,152.25L72.422,152.25z"/>
		<path fill="#FFFFFF" d="M70.422,144.25c1.76,0.24,2.28,1.72,2,4C70.662,148.01,70.142,146.53,70.422,144.25z"/>
		<path fill="#FFFFFF" d="M72.422,152.25c0.08,1.74-0.22,3.11-1,4c-1.17-0.17-1.09-1.58-1-3
			C71.422,153.25,71.612,152.44,72.422,152.25z"/>
		<path fill="#FFFFFF" d="M64.422,48.25c2.1,1.55,7.43,1.68,7,6c-4.77,0.1-5.47-3.86-10-4c-3.19,3.26,1.56,7.05,1,11
			c-1.35,0.31-1.91,1.42-4,1c0.11-5.44-1.52-9.14-3-13c-3.68-3.32-9.45-4.55-14-7c2.24-6.05,7.73,0.34,12,1c3.08-3.4-3.08-8.6,0-12
			c3.96,3.31,2.58,7.28,5,11C59.982,44.65,62.172,46.6,64.422,48.25z"/>
		<path fill="#FFFFFF" d="M69.422,150.25c1.17,0.17,1.09,1.58,1,3C68.342,152.69,68.302,151.69,69.422,150.25z"/>
		<path fill="#FFFFFF" d="M69.422,158.25c0.23-1.58,1.15-0.05,1,1C70.192,160.83,69.272,159.3,69.422,158.25z"/>
		<path fill="#FAB017" d="M69.422,220.25c0.86,4.86-2.86,5.141-2,10c-4.21,1.79-7.83,4.17-14,4c0.74-3.93,2.09-7.25,3-11
			C60.882,222.379,64.612,220.77,69.422,220.25z"/>
		<path fill="#FFFFFF" d="M66.422,142.25c0.41-1.26,1.29-2.04,3-2C69.012,141.51,68.132,142.29,66.422,142.25z"/>
		<path fill="#FFFFFF" d="M68.422,170.25c0.52,0.521-0.72,1.28-1,1C66.902,170.73,68.142,169.97,68.422,170.25z"/>
		<path fill="#FFFFFF" d="M66.422,113.25c0.06-0.61,0.15-1.18,1-1C67.362,112.86,67.272,113.43,66.422,113.25z"/>
		<path fill="#FFFFFF" d="M65.422,143.25c0.06-0.61,0.15-1.18,1-1C66.362,142.86,66.272,143.43,65.422,143.25z"/>
		<path fill="#FFFFFF" d="M58.422,62.25c0,1,0,2,0,3c-8.46,6.8-21.34-0.82-26-7c0.59-2.07-1.24-6.57,1-7c0.07-2.69,2.29-4.81,4-3
			c2.28,2.39-2.19,3.68-1,8c0.53,3.7,7.05,7.6,10,8C50.792,64.84,54.212,62.66,58.422,62.25z"/>
		<path fill="#FFFFFF" d="M53.422,202.25c1.16-0.159,1.78,0.221,2,1c-0.52,2.38-2.15,4.44-4,6c-1.66,1.41-4.48,1.9-6,3
			c-3.3,2.391-6.35,6.591-11,7c-0.83-3.17,1.42-3.55,3-5c0.59-0.54,1.44-1.569,2-2c0.78-0.6,2.12-0.35,3-1c1.36-1.01,2.51-3.02,4-4
			C49.162,205.45,52.012,205.78,53.422,202.25z"/>
		<path fill="#FFFFFF" d="M47.422,196.25c1.33,0,2.67,0,4,0c-1.24,4.641-7,6.58-11,9c-3.86,2.341-8.34,7.101-13,5
			c-0.09-2.689,3.23-2.96,5-4C36.872,203.64,42.992,200.11,47.422,196.25z"/>
		<path fill="#FFFFFF" d="M49.422,72.25c0.58,4.58-3.34,4.66-5,7c-12.6,1.75-28.24-9.8-18-19c1.62-0.28,1.72,0.94,3,1
			c0.47,3.14-2.69,2.64-3,5c2.01,6.33,8.41,8.25,15,10C45.392,76.22,44.902,71.73,49.422,72.25z"/>
		<path fill="#FFFFFF" d="M35.422,192.25c2.65-1.189,7.4-4.25,11-3c-2.47,3.801-7.01,5.82-11,8c-3.75,2.051-7.88,4.811-13,5
			c1.54-4.529,7.85-5.64,12-8C34.842,194.01,35.072,192.41,35.422,192.25z"/>
		<path fill="#FFFFFF" d="M42.422,83.25c0.72,3.06-1.02,3.64-1,6c-1.79-0.89-2.29,1.63-4,2c-7.06,1.52-19.83-4.8-21-9
			c-0.81-2.9-0.43-7.04,2-10c1,0,2,0,3,0c2.89,3.01-2.39,3.49-1,8c1.6,5.4,7.97,6.03,13,8C38.712,88.87,37.072,82.57,42.422,83.25z"
			/>
		<path fill="#FFFFFF" d="M36.422,167.25c3.56,8.801-25.25,18.32-27,7C8.352,167.28,31.972,157.62,36.422,167.25z M32.422,170.25
			c-0.01-4.71-5.48-4.31-9-4c-2.68,0.23-11.59,5.08-10,8C17.472,180.15,28.352,173.56,32.422,170.25z"/>
		<path fill="#FFFFFF" d="M35.422,98.25c-0.27,3.39,0.77,8.11-1,10c-10.01-0.99-16.84-5.16-27-6c-0.69-4.02,0.96-5.71,1-9
			c3.04-0.63,4.08-2.66,7-3C22.262,89.44,30.852,95.39,35.422,98.25z M31.422,103.25c0.2-8.67-11.6-10.21-19-8
			c-0.31,1.35-1.42,1.91-1,4C18.402,100.27,23.702,102.97,31.422,103.25z"/>
		<path fill="#FFFFFF" d="M30.422,147.25c1.92,2.41,2.95,5.71,3,10c-8.91,2.42-18.2,4.471-27,7c-6.39-8.069,3-17.18,12-13
			C20.112,147.6,24.522,146.68,30.422,147.25z M21.422,156.25c3.88-0.12,9.21,1.21,8-4C27.362,148.7,19.842,150.32,21.422,156.25z
			 M17.422,155.25c-2.29-4.409-11.28-1.46-10,4C10.432,161.02,17.032,159.28,17.422,155.25z"/>
		<path fill="#FAB017" d="M12.422,95.25c7.4-2.21,19.2-0.67,19,8c-7.72-0.28-13.02-2.98-20-4C11.002,97.16,12.112,96.6,12.422,95.25
			z"/>
		<path fill="#FAB017" d="M29.422,152.25c1.21,5.21-4.12,3.88-8,4C19.842,150.32,27.362,148.7,29.422,152.25z"/>
		<path fill="#FFFFFF" d="M32.422,130.25c-1.7,4.23-6.38,1.16-10,1c-6.81-0.31-15.59-0.28-20-3c4.01-3.65,11.44-3.89,16-7
			c-2.71-4.29-9.88-4.12-14-7c0-1,0-2,0-3c8.48-2.65,18.94,0.93,28,1c-0.64,7.01-11.09-0.21-14,3c1.99,3.34,7.81,2.85,10,6
			c-0.13,3.24-4.58,2.33-7,3c-2.44,0.68-4.8,1.69-7,2C18.042,129.97,27.882,127.46,32.422,130.25z"/>
		<path fill="#FFFFFF" d="M29.422,184.25c0,1,0,2,0,3c-1,0-2,0-3,0c0-1,0-2,0-3C27.422,184.25,28.422,184.25,29.422,184.25z"/>
		<path fill="#FAB017" d="M23.422,166.25c3.52-0.31,8.99-0.71,9,4c-4.07,3.311-14.95,9.9-19,4
			C11.832,171.33,20.742,166.48,23.422,166.25z"/>
		<path fill="#FAB017" d="M7.422,159.25c-1.28-5.46,7.71-8.409,10-4C17.032,159.28,10.432,161.02,7.422,159.25z"/>
	</g>
	<g>
	</g>
</g>
</svg>
